PathFileType	4	(X/Y/Z)	4_coords_data.trc
DataRate	CameraRate	NumFrames	NumMarkers	Units	OrigDataRate	OrigDataStartFrame	OrigNumFrames
30.0	30.0	7	21	m	30.0	1	51
Frame#	Time	THUMB_TIP	THUMB_IP	THUMB_MCP	THUMB_CMC	INDEX_TIP	INDEX_DIP	INDEX_PIP	INDEX_MCP	MIDDLE_TIP	MIDDLE_DIP	MIDDLE_PIP	MIDDLE_MCP	RING_TIP	RING_DIP	RING_PIP	RING_MCP	PINKY_TIP	PINKY_DIP	PINKY_PIP	PINKY_MCP	WRIST
X1	Y1	Z1	X2	Y2	Z2	X3	Y3	Z3	X4	Y4	Z4	X5	Y5	Z5	X6	Y6	Z6	X7	Y7	Z7	X8	Y8	Z8	X9	Y9	Z9	X10	Y10	Z10	X11	Y11	Z11	X12	Y12	Z12	X13	Y13	Z13	X14	Y14	Z14	X15	Y15	Z15	X16	Y16	Z16	X17	Y17	Z17	X18	Y18	Z18	X19	Y19	Z19	X20	Y20	Z20	X21	Y21	Z21
0	-2.749317978547796e-18	0.5374771656590762	-0.00815081258678485	-0.14272889945298206	0.5196601205177884	-0.013605013855028325	-0.12928253968690367	0.4917600936218649	-0.02236893434859033	-0.1186241065567824	0.4765707373211445	-0.02482515373908678	-0.07675358659971099	0.564922406616917	0.011804482561794671	-0.14524283271787763	0.548914605657077	0.018950367322421502	-0.14069457597292728	0.5259509949122879	0.025817384634744034	-0.13310995417655047	0.4875341824679955	0.027718029735021577	-0.1148295777082482	0.5791834065272259	0.011815101967543762	-0.1337828020851603	0.5639652622632614	0.018747531802096762	-0.12682942148647552	0.5393985541387908	0.029757940680043338	-0.11566441820535167	0.5000028217665475	0.03491176156055309	-0.09523007646928838	0.5763558068147033	-0.002994943026350172	-0.1120380291312949	0.5676628043909678	0.010350605386376555	-0.10359243581735306	0.5520706269726898	0.02702869337245506	-0.09364731824712941	0.5151040711106987	0.031335441944758013	-0.07784711260171917	0.5702616167183735	-0.014308431036403668	-0.09620163929211883	0.565692840935733	-0.002123034244722821	-0.08508217919383837	0.5563534407745656	0.012323278287030393	-0.07304508328724624	0.5231264972283443	0.018057243159230518	-0.0602397984243237	0.4622830810018609	-0.023011742144276925	-0.05198982011943093
1	0.03333333333333339	0.5368931159936616	-0.009023295926713248	-0.14305551825727364	0.5191151104825653	-0.014302152476392549	-0.12948805004926445	0.491338033305571	-0.023117511153972536	-0.11855445800964126	0.4770045788143338	-0.025852425991549022	-0.0764004270851989	0.5656230369402497	0.009982088960847402	-0.14596905783139513	0.5495743279111752	0.017013942035191243	-0.14138735718197004	0.5267820255287341	0.024181189894960764	-0.13356742475105993	0.48825414166664205	0.026425720344599446	-0.11556186055079681	0.5801311983061328	0.010715230946235943	-0.13475589378857294	0.5649947206511191	0.017731959155632637	-0.12770943585321787	0.5405249549815102	0.028696986964256377	-0.11628979123394267	0.5009423565305632	0.03358110672755055	-0.09615248269956078	0.5775789166686777	-0.004361265951191906	-0.11286194086980456	0.5687288369577215	0.009008048217163278	-0.10461951842385214	0.5531455678779198	0.025572196740598963	-0.09447207108572503	0.5161447643163652	0.029858514875902742	-0.07874665068936582	0.5704520510546207	-0.015394568793292929	-0.09643716533777663	0.5663539532063449	-0.0029303584637855318	-0.08544402862036249	0.5572917410885967	0.011640589855797523	-0.0733454421078405	0.523929154697819	0.016759018985826657	-0.060632340064721235	0.4622830810018608	-0.023011742144276925	-0.051989820119430985
2	0.06666666666666676	0.536323979189495	-0.00952054523971968	-0.14329510359436265	0.5185752884818738	-0.014671715480269132	-0.1296404551800649	0.49088404676396447	-0.02352937069426375	-0.11852483211024506	0.47727308205009467	-0.026518312872439553	-0.07614915672667966	0.5661303590960807	0.008425548507937308	-0.14640853752731353	0.5500673780607371	0.015422831242795643	-0.14182392472069105	0.5274203402784396	0.02287901227493483	-0.13385354975440733	0.48880044664527866	0.025444535779779565	-0.1160895975221638	0.5807859508114382	0.009630948140536333	-0.13543582918637925	0.5657390353581812	0.016777110747119184	-0.12832789732522532	0.5413725285561272	0.027786201834250512	-0.1167312249705924	0.5016536686148558	0.032545513197476894	-0.09683376178270009	0.578463920915131	-0.0054716504851958225	-0.11344542441260397	0.5695068233911038	0.007926035446717772	-0.10536628982931612	0.5539447926392705	0.024422171792481406	-0.09507645681118748	0.5169188188127057	0.028711351391924933	-0.07941117562768296	0.5705613300393779	-0.01623815891641356	-0.09658966220504639	0.5668369764081885	-0.003565596772701296	-0.08570226771675876	0.5579821610532227	0.01109695294036328	-0.07356085511602017	0.5245245451690076	0.01575529185862401	-0.06092078910088655	0.4622830810018609	-0.023011742144276925	-0.05198982011943104
3	0.10000000000000014	0.5358581373092024	-0.009774507136697475	-0.14344736797978314	0.5181284515736428	-0.0148437721004131	-0.12973748846003752	0.4904922081648314	-0.023737057755121804	-0.11851396314431462	0.47743962995799616	-0.026945085108311728	-0.07597893331411892	0.5664756196266061	0.007117369214450497	-0.14660823646033638	0.5504212101439	0.014149389715700678	-0.14204680863216707	0.5278932825657403	0.021881033150292883	-0.13400168577210364	0.48919813972918447	0.02474443836485718	-0.1164482551833056	0.5811896850617843	0.008589361846521482	-0.13586111648079746	0.5662387068774807	0.015903257993685305	-0.12872142639781892	0.5419797065912498	0.02703351464018633	-0.11701553719213825	0.5021664624141176	0.03179057618212988	-0.09730706503983239	0.5790595645030979	-0.006336035585248756	-0.11383166432226366	0.5700422434489283	0.007095105198481444	-0.10587601361011867	0.554510965182456	0.02356132608124062	-0.09549223085769198	0.5174682857140861	0.027874322978113097	-0.07987305067526296	0.570614296583115	-0.01685427705433684	-0.0966772580539268	0.5671735140246765	-0.004032034846004451	-0.0858721148278328	0.5584665990244291	0.010695568417705803	-0.0737025070985255	0.524944265063664	0.015026458391852682	-0.061117596735126845	0.4622830810018608	-0.023011742144276925	-0.051989820119430985
4	0.13333333333333353	0.5355376954894862	-0.009865291631491524	-0.14351689731591866	0.5178169464263245	-0.014894513413582389	-0.1297807413431949	0.4902104364159118	-0.023818528925567795	-0.11850853871075284	0.4775383176206195	-0.02720383552580352	-0.07587232048656689	0.56668535563707	0.006036150656698713	-0.14661090942845012	0.5506593820601678	0.013161469003290294	-0.14209449388377748	0.5282258610672838	0.02115325706444504	-0.13403978765403723	0.4894701079921273	0.024291206406180432	-0.11666794343685022	0.5813806511602881	0.007607375595102606	-0.13606935338903275	0.5665305128012291	0.015119277222769179	-0.12892479429465437	0.542382145285402	0.026434930307425386	-0.11716801363036289	0.5025095783757586	0.03129104016743811	-0.09760415598255984	0.5794107758898456	-0.006974642849004176	-0.11405742751669712	0.5703752785412937	0.006494811095959063	-0.10618763729783937	0.5548821926021489	0.02296249309139775	-0.09574926018358543	0.5178304623530002	0.02731739027799296	-0.0801632090467993	0.5706284613819519	-0.017265577243952834	-0.09671466976989834	0.5673902031583378	-0.0043419372595447925	-0.08596789289352263	0.5587809701293601	0.010429270939720459	-0.07378164925626018	0.5252168795697156	0.014544794093361513	-0.0612358234533949	0.462283081001861	-0.023011742144276925	-0.05198982011943093
5	0.1666666666666669	0.5353722067809114	-0.009844222844599515	-0.14351337855933732	0.5176512524983515	-0.014869735572493825	-0.12977612988512327	0.4900542644637047	-0.023820897983269917	-0.11850213578757851	0.47758905034390087	-0.02733892677929317	-0.07581569871047178	0.5667826070284472	0.00515798214327301	-0.14645609478207144	0.5508023407376693	0.012423975291327438	-0.14200228373441198	0.5284411508071326	0.020659111293329868	-0.1339916936862951	0.4896374651331902	0.024048025714696997	-0.1167746866536391	0.5813942503263673	0.006694433920835241	-0.13609719921801883	0.5666483445190393	0.01442590703432245	-0.12897100911272147	0.5426131174092174	0.025978011716664473	-0.11721234060019431	0.5027106644841298	0.0310139405006451	-0.09775516729974165	0.579559163981227	-0.0074145587022304005	-0.11415421614685178	0.5705416940272455	0.006097277121973499	-0.10633657402861674	0.5550925765829541	0.022591809750380443	-0.0958754487276316	0.5180384825737987	0.027003450747798308	-0.08031099001971054	0.5706159073572437	-0.017499865478083354	-0.09671403830602432	0.5675096996236808	-0.0045141018079513096	-0.08600322996027243	0.5589564480696783	0.01028341399666377	-0.0738094843148146	0.5253682276284465	0.014276837743422366	-0.06128880280900012	0.462283081001861	-0.023011742144276925	-0.05198982011943093
6	0.20000000000000023	0.5353480251696546	-0.009745601724049258	-0.14345000131649438	0.5176191357255454	-0.014797093560598884	-0.12973253401003332	0.4900161636718182	-0.023772857252424284	-0.11849280091935632	0.47760447765290326	-0.027380288448174528	-0.07579822877797276	0.5667881573296719	0.004457346583934152	-0.14618111110566873	0.5508682921300476	0.011899902580109423	-0.1418031832545512	0.5285607793057061	0.020360515239644217	-0.13387836540067205	0.48972001939327714	0.02397655280627009	-0.11679165314401485	0.5812641357668002	0.005854766867966488	-0.1359806842430183	0.566624242104529	0.01381849200570795	-0.12889177773440263	0.5427041818502998	0.02564480518354728	-0.11717091667159191	0.5027962745170322	0.030921225532936747	-0.09778880529083978	0.579543837744516	-0.00768726671573039	-0.1141496654840593	0.5705740245093937	0.005869862814306459	-0.10635564922587548	0.5551731752118032	0.022411088339836183	-0.09589707962834115	0.5181223186986001	0.02689087583543448	-0.08034438308940217	0.5705849994514735	-0.017588235972801902	-0.09668569113082465	0.5675517741667765	-0.004571762954844294	-0.08599125451429102	0.5590207956526585	0.010238293783753849	-0.07379713117593006	0.5254220571999211	0.014185326907611095	-0.061289967032778725	0.4622830810018608	-0.023011742144276925	-0.051989820119430985
